<svg id="Layer_1" data-name="Layer 1" xmlns="http://www.w3.org/2000/svg" viewBox="0 0 72 72"><defs><style>.cls-1{fill:#fff;}.cls-2,.cls-3{fill:#217346;}.cls-3{fill-rule:evenodd;}</style></defs><title>Excel_48x1_5</title><g id="_48" data-name="48"><rect class="cls-1" x="38" y="13" width="28" height="46"/><path class="cls-2" d="M66,13V59H38V13H66m0-2H38a2,2,0,0,0-2,2V59a2,2,0,0,0,2,2H66a2,2,0,0,0,2-2V13a2,2,0,0,0-2-2Z"/><path class="cls-2" d="M51,17H61v5H51Zm0,13H61V25H51Zm0,24H61V49H51Zm0-16H61V33H51Zm0,8H61V41H51ZM38,22H48V17H38Zm0,8H48V25H38Zm0,24H48V49H38Zm0-16H48V33H38Zm0,8H48V41H38Z"/><path class="cls-3" d="M42,4,4,11V61l38,7Z"/><path class="cls-1" d="M30.23,24l-5.14.31L22,31.63l-.2.66-.17.57-.13.48-.1.39H21.3q-.06-.29-.13-.56T21,32.66q-.07-.25-.15-.48t-.16-.45l-2.69-7-5,.3L18.36,36.5,12.6,47.92l4.83.29,3.25-7.49.15-.52.12-.45.1-.38q0-.17.07-.31h.05q.05.3.1.55t.1.45q0,.2.09.35a2.49,2.49,0,0,0,.09.25l3.38,8L30.4,49,24.12,36.39,30.23,24"/></g></svg>